<svg width="129" height="155" viewBox="0 0 129 155" fill="none" xmlns="http://www.w3.org/2000/svg">
<path d="M112.677 67.187C105.828 58.175 105.302 39.864 105.302 39.864C105.302 17.847 87.454 0 65.438 0C43.422 0 25.573 17.848 25.573 39.864C25.573 39.864 25.047 58.175 18.198 67.187C11.349 76.199 -4.12202 121.981 65.438 122.342C134.996 121.981 119.526 76.199 112.677 67.187Z" fill="black"/>
<path d="M54.374 86.068L51.707 119.78H79.103L75.241 85.642L54.374 86.068Z" fill="#F2C5C6"/>
<path d="M54.197 88.534L76.677 99.608L75.241 85.642L54.197 88.534Z" fill="black" fill-opacity="0.2"/>
<path d="M54.374 86.068L51.707 119.78H79.103L75.241 85.642L54.374 86.068Z" stroke="black" stroke-width="1.0254" stroke-miterlimit="10" stroke-linecap="round" stroke-linejoin="round"/>
<path d="M37.909 67.9068C41.4723 64.6156 41.6929 59.0588 38.4017 55.4955C35.1105 51.9322 29.5538 51.7116 25.9904 55.0028C22.4271 58.294 22.2065 63.8507 25.4977 67.414C28.7889 70.9774 34.3456 71.198 37.909 67.9068Z" fill="#F2C5C6"/>
<path d="M28.8379 60.224C28.8379 60.224 33.6599 60.201 36.5419 64.091" stroke="black" stroke-width="1.0254" stroke-miterlimit="10" stroke-linecap="round" stroke-linejoin="round"/>
<path d="M104.482 67.6686C107.912 64.2387 107.912 58.6776 104.482 55.2477C101.052 51.8177 95.491 51.8177 92.061 55.2477C88.6311 58.6776 88.6311 64.2387 92.061 67.6686C95.491 71.0985 101.052 71.0985 104.482 67.6686Z" fill="#F2C5C6"/>
<path d="M101.248 60.224C101.248 60.224 96.4269 60.201 93.5439 64.091" stroke="black" stroke-width="1.0254" stroke-miterlimit="10" stroke-linecap="round" stroke-linejoin="round"/>
<path d="M102.971 36.868C102.971 56.782 85.9929 74.162 65.0499 74.162C44.1069 74.162 27.1289 56.782 27.1289 36.868C27.1289 16.954 44.1069 0.811035 65.0499 0.811035C85.9929 0.811035 102.971 16.954 102.971 36.868Z" fill="black"/>
<path d="M33.001 34.486C33.001 34.486 31.298 90.522 64.025 90.522C99.605 90.522 97.368 34.486 97.368 34.486C97.368 34.486 97.156 8.77698 64.896 8.77698C35.322 8.77598 33.001 34.486 33.001 34.486Z" fill="#F2C5C6"/>
<path d="M33.001 34.486C33.001 34.486 31.298 90.522 64.025 90.522C99.605 90.522 97.368 34.486 97.368 34.486C97.368 34.486 97.156 8.77698 64.896 8.77698C35.322 8.77598 33.001 34.486 33.001 34.486Z" stroke="black" stroke-width="1.0254" stroke-miterlimit="10" stroke-linecap="round" stroke-linejoin="round"/>
<path d="M93.191 19.086C93.191 19.086 77.569 12.356 67.625 22.699C58.083 32.624 47.496 40.296 33.001 34.485C33.001 34.485 29.078 12.856 55.815 5.91101C82.551 -1.03299 93.191 19.086 93.191 19.086Z" fill="black"/>
<path d="M86.059 13.1999C86.059 13.1999 87.655 37.4859 101.984 36.8679C101.984 36.8679 98.171 13.0769 86.059 13.1999Z" fill="black"/>
<path d="M57.9049 70.341C57.9049 70.341 59.5799 74.518 64.2799 74.518C68.9799 74.518 70.6549 70.051 70.6549 70.051L57.9049 70.341Z" fill="#EA8283"/>
<path d="M57.9049 70.3411C57.9049 70.3411 60.5929 67.911 64.2799 69.458C64.2799 69.458 67.8329 67.756 70.6549 70.051C70.6549 70.051 64.4339 72.6221 57.9049 70.3411Z" fill="#EA8283"/>
<path d="M54.4619 53.691C54.4619 55.19 53.2469 56.4051 51.7479 56.4051C50.2489 56.4051 49.0339 55.19 49.0339 53.691C49.0339 52.192 50.2489 50.9771 51.7479 50.9771C53.2469 50.9771 54.4619 52.192 54.4619 53.691Z" fill="black"/>
<path d="M81.0899 53.691C81.0899 55.19 79.8749 56.4051 78.3759 56.4051C76.8769 56.4051 75.6619 55.19 75.6619 53.691C75.6619 52.192 76.8769 50.9771 78.3759 50.9771C79.8749 50.9771 81.0899 52.192 81.0899 53.691Z" fill="black"/>
<path d="M62.6 59.9771V63.088H65.523" stroke="black" stroke-width="1.0254" stroke-miterlimit="10" stroke-linecap="round" stroke-linejoin="round"/>
<path d="M47.6489 39.088C47.6489 39.088 40.5599 39.958 41.4959 43.1C41.4959 43.1 42.1819 45.216 48.3249 44.328C54.4679 43.439 56.7099 42.58 56.6189 40.471C56.5289 38.363 50.8849 38.405 47.6489 39.088Z" fill="black"/>
<path d="M80.6279 39.088C80.6279 39.088 87.7169 39.958 86.7809 43.1C86.7809 43.1 86.0949 45.216 79.9519 44.328C73.8089 43.439 71.5669 42.58 71.6579 40.471C71.7479 38.363 77.3929 38.405 80.6279 39.088Z" fill="black"/>
<path d="M56.798 69.458C56.798 69.458 63.146 73.434 71.325 69.458" stroke="black" stroke-width="1.0254" stroke-miterlimit="10" stroke-linecap="round" stroke-linejoin="round"/>
<path d="M57.1041 61.7718C61.5634 56.5027 60.907 48.6163 55.6379 44.1569C50.3689 39.6976 42.4824 40.354 38.0231 45.6231C33.5637 50.8922 34.2201 58.7786 39.4892 63.2379C44.7583 67.6973 52.6447 67.0409 57.1041 61.7718Z" stroke="#3623B7" stroke-width="1.3406" stroke-miterlimit="10"/>
<path d="M90.3574 62.5297C95.2385 57.6486 95.2385 49.7347 90.3574 44.8536C85.4763 39.9725 77.5624 39.9725 72.6813 44.8536C67.8002 49.7347 67.8002 57.6486 72.6813 62.5297C77.5624 67.4108 85.4763 67.4108 90.3574 62.5297Z" stroke="#3623B7" stroke-width="1.3406" stroke-miterlimit="10"/>
<path d="M60.0679 53.691C60.0679 53.691 64.5449 51.272 69.0219 53.691" stroke="#3623B7" stroke-width="1.3406" stroke-miterlimit="10"/>
<path opacity="0.16" d="M46.2889 41.7429L59.2659 59.3609C59.2659 59.3609 55.3519 66.8429 49.1179 66.0109L36.0199 48.8229C36.0199 48.8229 39.5609 41.2669 46.2889 41.7429Z" fill="#3623B7"/>
<path opacity="0.16" d="M80.213 41.7429L93.19 59.3609C93.19 59.3609 89.276 66.8429 83.042 66.0109L69.944 48.8229C69.944 48.8229 73.485 41.2669 80.213 41.7429Z" fill="#3623B7"/>
<path d="M99.487 122.394L65.191 110.801L29.752 122.872C15.996 127.775 5.41 140.182 0 154.043H128.352C123.239 140.18 112.967 127.587 99.487 122.394Z" fill="#3623B7"/>
<path d="M65.0499 109.731L29.7529 122.872C29.7529 122.872 62.6009 137.581 99.4869 122.394L65.0499 109.731Z" fill="#F2C5C6"/>
<path d="M51.915 114.621L29.752 122.872C29.752 122.872 64.0609 137.324 99.4859 122.394L78.526 114.687" stroke="#3623B7" stroke-width="1.0254" stroke-miterlimit="10" stroke-linecap="round" stroke-linejoin="round"/>
</svg>
