<svg width="129" height="155" viewBox="0 0 129 155" fill="none" xmlns="http://www.w3.org/2000/svg">
<path d="M45.1245 11.3901C45.1245 11.3901 59.4275 -7.83635 86.8735 3.67308C111.722 14.0934 103.507 42.4926 103.507 42.4926L95.5425 65.0894L45.1245 11.3901Z" fill="black"/>
<path d="M48.5835 10.6414C48.5835 10.6414 40.2495 4.88178 29.1615 16.5176C14.6845 31.7086 39.7015 72.5507 39.7015 72.5507L48.5835 10.6414Z" fill="black"/>
<path d="M54.6975 87.941L52.0305 120.723H79.4265L75.5645 87.5267L54.6975 87.941Z" fill="#F2C5C6"/>
<path d="M54.5205 90.3399L77.0005 101.108L75.5645 87.5267L54.5205 90.3399Z" fill="black" fill-opacity="0.2"/>
<path d="M54.6975 87.941L52.0305 120.723H79.4265L75.5645 87.5267L54.6975 87.941Z" stroke="black" stroke-width="1.0254" stroke-miterlimit="10" stroke-linecap="round" stroke-linejoin="round"/>
<path d="M40.8175 66.0103C41.9516 61.4241 39.0476 56.8122 34.3312 55.7094C29.6149 54.6066 24.8721 57.4305 23.738 62.0167C22.6039 66.6029 25.5079 71.2148 30.2243 72.3176C34.9407 73.4204 39.6834 70.5966 40.8175 66.0103Z" fill="#F2C5C6"/>
<path d="M40.8175 66.0103C41.9516 61.4241 39.0476 56.8122 34.3312 55.7094C29.6149 54.6066 24.8721 57.4305 23.738 62.0167C22.6039 66.6029 25.5079 71.2148 30.2243 72.3176C34.9407 73.4204 39.6834 70.5966 40.8175 66.0103Z" stroke="black" stroke-width="1.0254" stroke-miterlimit="10" stroke-linecap="round" stroke-linejoin="round"/>
<path d="M29.1615 62.811C29.1615 62.811 33.9835 62.7887 36.8655 66.5713" stroke="black" stroke-width="1.0254" stroke-miterlimit="10" stroke-linecap="round" stroke-linejoin="round"/>
<path d="M100.617 72.3382C105.339 71.2585 108.267 66.6607 107.157 62.0689C106.047 57.477 101.318 54.6298 96.5961 55.7095C91.874 56.7892 88.946 61.3869 90.0563 65.9788C91.1667 70.5707 95.8948 73.4178 100.617 72.3382Z" fill="#F2C5C6"/>
<path d="M100.617 72.3382C105.339 71.2585 108.267 66.6607 107.157 62.0689C106.047 57.477 101.318 54.6298 96.5961 55.7095C91.874 56.7892 88.946 61.3869 90.0563 65.9788C91.1667 70.5707 95.8948 73.4178 100.617 72.3382Z" stroke="black" stroke-width="1.0254" stroke-miterlimit="10" stroke-linecap="round" stroke-linejoin="round"/>
<path d="M101.571 62.811C101.571 62.811 96.7494 62.7887 93.8674 66.5713" stroke="black" stroke-width="1.0254" stroke-miterlimit="10" stroke-linecap="round" stroke-linejoin="round"/>
<path d="M101.358 41.983C101.358 61.3476 86.3165 78.248 65.3735 78.248C44.4305 78.248 28.4205 61.3476 28.4205 41.983C28.4205 22.6185 44.4295 6.9209 65.3735 6.9209C86.3175 6.9209 101.358 22.6185 101.358 41.983Z" fill="black"/>
<path d="M33.3245 37.7823C33.3245 37.7823 30.1175 91.5876 64.3485 92.2722C101.355 93.0122 97.6915 37.7823 97.6915 37.7823C97.6915 37.7823 97.4795 12.7826 65.2195 12.7826C35.6455 12.7826 33.3245 37.7823 33.3245 37.7823Z" fill="#F2C5C6"/>
<path d="M33.3245 37.7823C33.3245 37.7823 30.0785 91.8307 64.3485 92.2722C101.572 92.7516 97.6915 37.7823 97.6915 37.7823C97.6915 37.7823 97.4795 12.7826 65.2195 12.7826C35.6455 12.7826 33.3245 37.7823 33.3245 37.7823Z" stroke="black" stroke-width="1.0254" stroke-miterlimit="10" stroke-linecap="round" stroke-linejoin="round"/>
<path d="M53.9785 57.5833C53.9785 59.041 52.7635 60.2225 51.2645 60.2225C49.7655 60.2225 48.5505 59.041 48.5505 57.5833C48.5505 56.1257 49.7655 54.9442 51.2645 54.9442C52.7635 54.9442 53.9785 56.1257 53.9785 57.5833Z" fill="black"/>
<path d="M80.6055 57.5833C80.6055 59.041 79.3905 60.2225 77.8915 60.2225C76.3925 60.2225 75.1775 59.041 75.1775 57.5833C75.1775 56.1257 76.3925 54.9442 77.8915 54.9442C79.3905 54.9442 80.6055 56.1257 80.6055 57.5833Z" fill="black"/>
<path d="M62.1165 58.9136V66.722H66.0085" stroke="black" stroke-width="1.0254" stroke-miterlimit="10" stroke-linecap="round" stroke-linejoin="round"/>
<path d="M47.0184 41.948C47.0184 41.948 39.7874 43.0449 40.2734 46.459C40.2734 46.459 40.5804 49.9266 48.2074 48.5623C54.9074 47.3633 57.2884 46.389 56.8714 43.6526C56.4444 40.8492 50.5694 41.2187 47.0184 41.948Z" fill="black"/>
<path d="M82.0994 41.948C82.0994 41.948 89.3304 43.0449 88.8444 46.459C88.8444 46.459 88.5374 49.9266 80.9104 48.5623C74.2104 47.3633 71.8294 46.389 72.2464 43.6526C72.6734 40.8492 78.5474 41.2187 82.0994 41.948Z" fill="black"/>
<path d="M53.9214 72.0606C53.9214 72.0606 62.1304 76.1379 73.9434 71.7961" stroke="black" stroke-width="1.0254" stroke-miterlimit="10" stroke-linecap="round" stroke-linejoin="round"/>
<path d="M45.6776 11.5836C45.6776 11.5836 40.5455 28.7681 72.2005 33.9734C97.6295 38.1557 101.572 46.1469 101.572 46.1469C101.572 46.1469 100.792 26.6978 88.8675 17.9053C72.2005 5.61402 45.6776 11.5836 45.6776 11.5836Z" fill="black"/>
<path d="M50.0915 15.5753C50.0915 15.5753 50.9355 26.7133 33.3245 37.7822C33.3245 37.7822 27.0935 17.1283 50.0915 15.5753Z" fill="black"/>
<path d="M99.8105 123.266L65.3735 110.952L30.0755 123.73C16.3195 128.498 5.73349 140.563 0.323486 154.041H128.675C123.562 140.561 113.29 128.315 99.8105 123.266Z" fill="#05CBE7"/>
<path d="M65.3725 109.98L49.7335 116.613L36.1565 121.529C36.1565 121.529 44.5675 135.415 65.5245 135.102C75.7285 134.949 87.4305 130.871 94.4935 121.365L81.8775 116.854L65.3725 109.98Z" fill="#F2C5C6"/>
<path d="M52.4445 115.632L36.1565 121.529C36.1565 121.529 44.5675 135.415 65.5245 135.102C75.7285 134.949 87.4305 130.871 94.4935 121.365L78.7685 115.742" stroke="black" stroke-width="1.0254" stroke-miterlimit="10" stroke-linecap="round" stroke-linejoin="round"/>
</svg>
