<svg width="32" height="30" viewBox="0 0 32 30" fill="none" xmlns="http://www.w3.org/2000/svg">
<path d="M27.3854 7.38184H4.61456C2.06601 7.38184 0 9.44791 0 11.9965V24.9217C0 27.4703 2.06601 29.5364 4.61456 29.5364H27.3854C29.934 29.5364 32 27.4703 32 24.9217V11.9965C32 9.44791 29.934 7.38184 27.3854 7.38184Z" fill="#3623B7"/>
<path d="M22.6789 0.0784709L4.60793 3.61007C3.22291 3.91859 1.22086 5.31022 1.22086 7.00381C1.22086 7.00381 2.37614 5.53997 4.98865 5.53997H27.0637V3.96454C27.0637 2.99302 26.6765 1.75893 25.9938 1.06968C25.1273 0.203193 23.8802 -0.177537 22.6724 0.0784709H22.6789Z" fill="#5AC9E4"/>
</svg>
