<svg width="42" height="42" viewBox="0 0 42 42" fill="none" xmlns="http://www.w3.org/2000/svg">
<g clip-path="url(#clip0_4185_1718)">
<path d="M17.9163 17.4937L10.0085 9.58599C9.52809 9.10545 8.74896 9.10545 8.26834 9.58599L0.360527 17.4937C0.188474 17.6658 0.0713104 17.8851 0.0238471 18.1237C-0.0236162 18.3624 0.000752459 18.6098 0.0938722 18.8346C0.186992 19.0595 0.344682 19.2516 0.547005 19.3868C0.749329 19.5221 0.987202 19.5943 1.23055 19.5943H3.95399L3.95407 28.9075C3.95406 29.1025 4.00038 29.2947 4.08922 29.4683C4.17807 29.6419 4.30688 29.7918 4.46506 29.9058C4.62324 30.0198 4.80624 30.0946 4.99899 30.124C5.19174 30.1534 5.38872 30.1366 5.57369 30.0749L9.13836 28.8866L12.703 30.0749C12.888 30.1366 13.085 30.1534 13.2777 30.124C13.4705 30.0946 13.6535 30.0198 13.8117 29.9058C13.9698 29.7918 14.0987 29.6419 14.1875 29.4683C14.2763 29.2947 14.3227 29.1025 14.3227 28.9075L14.3227 19.5942H17.0462C17.2895 19.5942 17.5275 19.5221 17.7298 19.3869C17.9322 19.2517 18.0899 19.0595 18.1831 18.8347C18.2762 18.6099 18.3006 18.3624 18.2531 18.1237C18.2056 17.885 18.0884 17.6658 17.9163 17.4937Z" fill="#FE5857"/>
<path d="M41.6395 17.4937L33.7317 9.58599C33.2514 9.10545 32.4722 9.10545 31.9916 9.58599L24.0838 17.4937C23.9117 17.6658 23.7946 17.8851 23.7471 18.1237C23.6997 18.3624 23.724 18.6098 23.8171 18.8346C23.9103 19.0595 24.0679 19.2516 24.2703 19.3868C24.4726 19.5221 24.7105 19.5943 24.9538 19.5943H27.6773L27.6773 28.9075C27.6773 29.1025 27.7236 29.2947 27.8125 29.4683C27.9013 29.6419 28.0302 29.7918 28.1883 29.9058C28.3465 30.0198 28.5295 30.0946 28.7223 30.124C28.915 30.1534 29.112 30.1366 29.297 30.0749L32.8616 28.8866L36.4263 30.0749C36.6113 30.1366 36.8082 30.1534 37.001 30.124C37.1938 30.0946 37.3768 30.0198 37.5349 29.9058C37.6931 29.7918 37.8219 29.6419 37.9108 29.4683C37.9996 29.2947 38.0459 29.1025 38.0459 28.9075L38.046 19.5942H40.7695C41.0129 19.5942 41.2508 19.5221 41.4532 19.3869C41.6555 19.2517 41.8132 19.0595 41.9064 18.8347C41.9995 18.6098 42.0238 18.3624 41.9764 18.1237C41.9289 17.885 41.8117 17.6658 41.6395 17.4937Z" fill="#EF3D3C"/>
<path d="M33.7317 18.812L21.87 6.95025C21.3896 6.46971 20.6105 6.46971 20.1299 6.95025L8.26815 18.812C8.0961 18.9841 7.97893 19.2034 7.93147 19.4421C7.88401 19.6807 7.90838 19.9281 8.0015 20.153C8.09462 20.3778 8.25231 20.57 8.45463 20.7052C8.65695 20.8404 8.89483 20.9126 9.13817 20.9126H11.8617V38.1337C11.8617 38.3287 11.908 38.5208 11.9968 38.6944C12.0857 38.868 12.2145 39.0179 12.3727 39.1319C12.5308 39.2459 12.7138 39.3207 12.9066 39.3501C13.0993 39.3795 13.2963 39.3627 13.4812 39.3011L21 36.7948L28.5187 39.301C28.7037 39.3626 28.9007 39.3795 29.0934 39.35C29.2861 39.3206 29.4691 39.2458 29.6273 39.1318C29.7855 39.0178 29.9143 38.8679 30.0031 38.6943C30.0919 38.5208 30.1383 38.3286 30.1383 38.1336V20.9126H32.8617C33.1051 20.9126 33.343 20.8404 33.5453 20.7052C33.7477 20.57 33.9054 20.3778 33.9985 20.153C34.0916 19.9282 34.116 19.6808 34.0685 19.4421C34.021 19.2034 33.9038 18.9841 33.7317 18.812Z" fill="#DB0253"/>
<path d="M21.87 6.95029C21.7559 6.83585 21.6203 6.74509 21.471 6.68323C21.3217 6.62137 21.1616 6.58963 21 6.58984V36.7947L28.5187 39.301C28.7037 39.3626 28.9007 39.3794 29.0934 39.35C29.2862 39.3206 29.4692 39.2458 29.6273 39.1318C29.7855 39.0178 29.9143 38.8678 30.0031 38.6943C30.092 38.5207 30.1383 38.3285 30.1383 38.1336V20.9126H32.8617C33.1051 20.9126 33.343 20.8404 33.5453 20.7052C33.7477 20.57 33.9054 20.3778 33.9985 20.153C34.0916 19.9281 34.116 19.6807 34.0685 19.442C34.021 19.2033 33.9038 18.9841 33.7317 18.812L21.87 6.95029Z" fill="#FE5857"/>
<path d="M8.6903 35.9455L6.05439 33.3096C5.57401 32.829 4.79488 32.829 4.31426 33.3096L1.67835 35.9455C1.19781 36.4259 1.19781 37.2051 1.67835 37.6856C2.15881 38.1661 2.93794 38.1661 3.41848 37.6856L3.9539 37.1502V40.7695C3.9539 41.449 4.50482 42 5.18436 42C5.86391 42 6.41483 41.449 6.41483 40.7695V37.1503L6.95017 37.6856C7.43063 38.1661 8.20976 38.1661 8.6903 37.6856C9.17092 37.2052 9.17092 36.426 8.6903 35.9455ZM7.37238 2.99631L4.73647 0.360404C4.2561 -0.120135 3.47697 -0.120135 2.99635 0.360404L0.360435 2.99631C-0.120104 3.47677 -0.120104 4.2559 0.360435 4.73644C0.840892 5.2169 1.62002 5.2169 2.10056 4.73644L2.63598 4.20103V7.82033C2.63598 8.49987 3.1869 9.0508 3.86645 9.0508C4.546 9.0508 5.09692 8.49987 5.09692 7.82033V4.20111L5.63226 4.73644C6.11271 5.2169 6.89184 5.2169 7.37238 4.73644C7.853 4.2559 7.853 3.47677 7.37238 2.99631ZM41.6395 2.99631L39.0036 0.360404C38.5233 -0.120135 37.7441 -0.120135 37.2635 0.360404L34.6275 2.99631C34.147 3.47677 34.147 4.2559 34.6275 4.73644C35.108 5.2169 35.8871 5.2169 36.3676 4.73644L36.9031 4.20103V7.82033C36.9031 8.49987 37.454 9.0508 38.1335 9.0508C38.8131 9.0508 39.364 8.49987 39.364 7.82033V4.20111L39.8993 4.73644C40.3798 5.2169 41.1589 5.2169 41.6395 4.73644C42.1202 4.2559 42.1202 3.47677 41.6395 2.99631ZM40.3215 35.9455L37.6856 33.3096C37.2053 32.829 36.4261 32.829 35.9455 33.3096L33.3095 35.9455C32.829 36.4259 32.829 37.2051 33.3095 37.6856C33.79 38.1661 34.5691 38.1661 35.0496 37.6856L35.5851 37.1502V40.7695C35.5851 41.449 36.136 42 36.8155 42C37.4951 42 38.046 41.449 38.046 40.7695V37.1503L38.5813 37.6856C39.0618 38.1661 39.8409 38.1661 40.3215 37.6856C40.8021 37.2052 40.8021 36.426 40.3215 35.9455Z" fill="#DB0253"/>
<path d="M24.6701 27.0356C24.4953 25.6163 23.0403 24.7433 21.6331 23.8989C21.0777 23.5657 20.0827 22.9687 19.8151 22.6143C19.8343 22.591 19.8597 22.5626 19.8931 22.5292C20.7311 21.6912 21.269 21.6912 22.1069 22.5292C22.5874 23.0097 23.3665 23.0097 23.847 22.5292C24.3276 22.0486 24.3276 21.2696 23.847 20.7891C23.326 20.268 22.7828 19.8979 22.2302 19.6769C22.2273 18.9998 21.6778 18.4517 21 18.4517C20.3222 18.4517 19.7726 18.9998 19.7698 19.6769C19.2173 19.8978 18.6741 20.2679 18.1529 20.7891C17.3585 21.5835 17.2668 22.3605 17.3299 22.8725C17.5046 24.2918 18.9597 25.1648 20.3669 26.0091C20.9223 26.3423 21.9173 26.9394 22.1848 27.2937C22.1656 27.3171 22.1402 27.3455 22.1068 27.3789C21.2689 28.2168 20.731 28.2168 19.8931 27.3789C19.4125 26.8984 18.6335 26.8983 18.1529 27.3789C17.6725 27.8594 17.6725 28.6385 18.1529 29.119C18.674 29.6401 19.2172 30.0102 19.7698 30.2311C19.7726 30.9082 20.3222 31.4563 21 31.4563C21.6778 31.4563 22.2273 30.9082 22.2302 30.2311C22.7827 30.0102 23.3259 29.6401 23.847 29.119C24.6414 28.3246 24.7331 27.5475 24.6701 27.0356Z" fill="#F0F9FA"/>
<path d="M22.2302 30.2312C22.7827 30.0103 23.3259 29.6401 23.8471 29.1191C24.6415 28.3246 24.7332 27.5476 24.6701 27.0357C24.4954 25.6164 23.0403 24.7434 21.6331 23.899C21.4208 23.7724 21.2098 23.6436 21.0001 23.5127V26.3956C21.4869 26.7014 22.0034 27.0535 22.1849 27.2939C22.1657 27.3173 22.1403 27.3457 22.1069 27.379C21.688 27.798 21.344 28.0075 21 28.0075V31.4565C21.6778 31.4564 22.2274 30.9083 22.2302 30.2312ZM22.1069 22.5292C22.5874 23.0097 23.3665 23.0097 23.8471 22.5292C24.3276 22.0486 24.3276 21.2696 23.8471 20.7891C23.326 20.268 22.7828 19.8979 22.2302 19.6769C22.2274 18.9998 21.6778 18.4517 21 18.4517V21.9007C21.344 21.9007 21.6879 22.1103 22.1069 22.5292Z" fill="#CFE9F0"/>
</g>
<defs>
<clipPath id="clip0_4185_1718">
<rect width="42" height="42" fill="white"/>
</clipPath>
</defs>
</svg>
