<svg width="42" height="42" viewBox="0 0 42 42" fill="none" xmlns="http://www.w3.org/2000/svg">
<g clip-path="url(#clip0_4185_1732)">
<path d="M42 33.3867V35.8477C42 36.5366 41.4587 37.0781 40.7695 37.0781H35.8477L33.0587 38.3086H27.7676L25.9219 37.0781C25.2327 37.0781 24.6914 36.5366 24.6914 35.8477V33.3867C24.6914 32.6976 25.2327 32.1562 25.9219 32.1562H40.7695C41.4587 32.1562 42 32.6976 42 33.3867Z" fill="#FFEA80"/>
<path d="M42 33.3867V35.8477C42 36.5366 41.4587 37.0781 40.7695 37.0781H35.8477L33.0587 38.3086H28.3828V32.1562H40.7695C41.4587 32.1562 42 32.6976 42 33.3867Z" fill="#FFCC66"/>
<path d="M40.7695 0H6.23438C5.54523 0 5.00391 0.541324 5.00391 1.23047V21C5.00391 21.689 5.54523 22.2305 6.23438 22.2305H40.7695C41.4587 22.2305 42 21.689 42 21V1.23047C42 0.541324 41.4587 0 40.7695 0Z" fill="#00CDCD"/>
<path d="M42 1.23047V21C42 21.689 41.4587 22.2305 40.7695 22.2305H18.5391V0H40.7695C41.4587 0 42 0.541324 42 1.23047Z" fill="#00A0A5"/>
<path d="M35.8477 5.00391H1.23047C0.541324 5.00391 0 5.54523 0 6.23438V26.0039C0 26.6929 0.541324 27.2344 1.23047 27.2344H35.8477C36.5368 27.2344 37.0781 26.6929 37.0781 26.0039V6.23438C37.0781 5.54523 36.5368 5.00391 35.8477 5.00391Z" fill="#00DCFF"/>
<path d="M37.0781 6.23438V26.0039C37.0781 26.6929 36.5368 27.2344 35.8477 27.2344H18.5391V5.00391H35.8477C36.5368 5.00391 37.0781 5.54523 37.0781 6.23438ZM8.69531 17.3086H6.23438C5.55425 17.3086 5.00391 16.7582 5.00391 16.0781C5.00391 15.398 5.55425 14.8477 6.23438 14.8477H8.69531C9.37543 14.8477 9.92578 15.398 9.92578 16.0781C9.92578 16.7582 9.37543 17.3086 8.69531 17.3086Z" fill="#00BEC3"/>
<path d="M30.8438 17.3086H28.3828C27.7027 17.3086 27.1523 16.7582 27.1523 16.0781C27.1523 15.398 27.7027 14.8477 28.3828 14.8477H30.8438C31.5239 14.8477 32.0742 15.398 32.0742 16.0781C32.0742 16.7582 31.5239 17.3086 30.8438 17.3086Z" fill="#00A0A5"/>
<path d="M17.3086 33.3867V35.8477C17.3086 36.5366 16.7673 37.0781 16.0781 37.0781L13.0513 38.3086H3.97039L1.23047 37.0781C0.541324 37.0781 0 36.5366 0 35.8477V33.3867C0 32.6976 0.541324 32.1562 1.23047 32.1562H16.0781C16.7673 32.1562 17.3086 32.6976 17.3086 33.3867Z" fill="#FFEA80"/>
<path d="M37.0781 38.3086V40.7695C37.0781 41.4585 36.5368 42 35.8477 42H21C20.3109 42 19.7695 41.4585 19.7695 40.7695V38.3086C19.7695 37.6194 20.3109 37.0781 21 37.0781H35.8477C36.5368 37.0781 37.0781 37.6194 37.0781 38.3086ZM17.3086 33.3867V35.8477C17.3086 36.5366 16.7673 37.0781 16.0781 37.0781L13.0513 38.3086H8.69531V32.1562H16.0781C16.7673 32.1562 17.3086 32.6976 17.3086 33.3867Z" fill="#FFCC66"/>
<path d="M17.3086 38.3086V40.7695C17.3086 41.4585 16.7673 42 16.0781 42H1.23047C0.541324 42 0 41.4585 0 40.7695V38.3086C0 37.6194 0.541324 37.0781 1.23047 37.0781H16.0781C16.7673 37.0781 17.3086 37.6194 17.3086 38.3086Z" fill="#FFCC66"/>
<path d="M17.3086 38.3086V40.7695C17.3086 41.4585 16.7673 42 16.0781 42H8.69531V37.0781H16.0781C16.7673 37.0781 17.3086 37.6194 17.3086 38.3086Z" fill="#FFA64D"/>
<path d="M18.5391 9.92578C15.143 9.92578 12.3867 12.682 12.3867 16.0781C12.3867 19.4742 15.143 22.2305 18.5391 22.2305C21.9352 22.2305 24.6914 19.4742 24.6914 16.0781C24.6914 12.682 21.9352 9.92578 18.5391 9.92578Z" fill="#00CDCD"/>
<path d="M24.6914 16.0781C24.6914 19.4742 21.9352 22.2305 18.5391 22.2305V9.92578C21.9352 9.92578 24.6914 12.682 24.6914 16.0781Z" fill="#00A0A5"/>
<path d="M37.0781 38.3086V40.7695C37.0781 41.4585 36.5368 42 35.8477 42H28.3828V37.0781H35.8477C36.5368 37.0781 37.0781 37.6194 37.0781 38.3086Z" fill="#FFA64D"/>
</g>
<defs>
<clipPath id="clip0_4185_1732">
<rect width="42" height="42" fill="white"/>
</clipPath>
</defs>
</svg>
