<svg width="42" height="42" viewBox="0 0 42 42" fill="none" xmlns="http://www.w3.org/2000/svg">
<g clip-path="url(#clip0_4185_1692)">
<path d="M30.226 18.4517H39.4516C40.1312 18.4517 40.6821 19.0024 40.6821 19.6821V40.7677C40.6821 41.4473 40.1312 41.9982 39.4516 41.9982H30.226C29.5463 41.9982 28.9955 41.4473 28.9955 40.7677V19.6821C28.9955 19.0024 29.5463 18.4517 30.226 18.4517ZM15.7282 24.9539H24.9539C25.6335 24.9539 26.1844 25.505 26.1844 26.1844V40.7677C26.1844 41.4473 25.6335 41.9982 24.9539 41.9982H15.7282C15.0486 41.9982 14.4977 41.4473 14.4977 40.7677V26.1843C14.4977 25.505 15.0486 24.9539 15.7282 24.9539V24.9539ZM1.23047 31.4565H10.4564C11.1357 31.4565 11.6869 32.0073 11.6869 32.687V40.7677C11.6869 41.4473 11.1357 41.9982 10.4564 41.9982H1.23047C0.55084 41.9982 0 41.4473 0 40.7677V32.687C0 32.0073 0.55084 31.4565 1.23047 31.4565Z" fill="#FDBF00"/>
<path d="M40.7695 0H32.8619C32.1822 0 31.6314 0.55084 31.6314 1.23047C31.6314 1.9101 32.1822 2.46094 32.8619 2.46094H37.9593L27.1927 14.1248L13.416 10.3677C13.2067 10.3104 12.986 10.3095 12.7763 10.3652C12.5666 10.4209 12.3753 10.5311 12.222 10.6846L0.360527 22.5465C-0.120176 23.0267 -0.120176 23.806 0.360527 24.2863C0.47462 24.4008 0.610213 24.4916 0.759509 24.5534C0.908805 24.6153 1.06886 24.6471 1.23047 24.6469C1.54514 24.6469 1.86014 24.5267 2.10041 24.2863L13.4573 12.9295L27.2661 16.6956C27.4834 16.7548 27.7129 16.7533 27.9294 16.6911C28.1459 16.6289 28.3412 16.5086 28.494 16.3431L39.5391 4.37776V9.13812C39.5391 9.81783 40.0899 10.3686 40.7695 10.3686C41.4492 10.3686 42 9.81783 42 9.13812V1.23047C42 0.55084 41.4492 0 40.7695 0Z" fill="#B32445"/>
<path d="M11.6869 32.6869V40.7679C11.6869 41.4473 11.1357 41.9984 10.4564 41.9984H5.84308V31.4565H10.4564C11.1357 31.4565 11.6869 32.007 11.6869 32.687V32.6869Z" fill="#FF9F00"/>
<path d="M0 35.4976H11.6869V37.9585H0V35.4976Z" fill="#FF9F00"/>
<path d="M5.84308 35.4976H11.6869V37.9585H5.84308V35.4976Z" fill="#F08500"/>
<path d="M26.1844 26.1846V40.7681C26.1844 41.4475 25.6331 41.9986 24.9539 41.9986H20.3412V24.9541H24.9538C25.6331 24.9541 26.1843 25.5055 26.1843 26.1846H26.1844Z" fill="#FF9F00"/>
<path d="M14.4977 28.9956H26.1847V31.4565H14.4977V28.9956Z" fill="#FF9F00"/>
<path d="M20.3412 28.9956H26.1843V31.4565H20.3412V28.9956Z" fill="#F08500"/>
<path d="M14.4977 35.4976H26.1847V37.9585H14.4977V35.4976Z" fill="#FF9F00"/>
<path d="M20.3412 35.4976H26.1843V37.9585H20.3412V35.4976Z" fill="#F08500"/>
<path d="M40.6818 19.6816V40.7678C40.6818 41.4472 40.1313 41.9982 39.4513 41.9982H34.8387V18.4512H39.4513C40.1313 18.4512 40.6818 19.0023 40.6818 19.6816Z" fill="#FF9F00"/>
<path d="M28.9955 22.4932H40.6821V24.9541H28.9955V22.4932Z" fill="#FF9F00"/>
<path d="M34.8387 22.4932H40.6818V24.9541H34.8387V22.4932Z" fill="#F08500"/>
<path d="M28.9955 28.9956H40.6821V31.4565H28.9955V28.9956Z" fill="#FF9F00"/>
<path d="M34.8387 28.9956H40.6818V31.4565H34.8387V28.9956Z" fill="#F08500"/>
<path d="M28.9955 35.4976H40.6821V37.9585H28.9955V35.4976Z" fill="#FF9F00"/>
<path d="M34.8387 35.4976H40.6818V37.9585H34.8387V35.4976Z" fill="#F08500"/>
<path d="M40.7695 0H32.8619C32.1822 0 31.6314 0.55084 31.6314 1.23047C31.6314 1.9101 32.1822 2.46094 32.8619 2.46094H37.9593L27.1927 14.1248L20.3409 12.2563V14.807L27.2661 16.6956C27.4834 16.7548 27.7129 16.7533 27.9294 16.6911C28.1459 16.629 28.3412 16.5086 28.494 16.3431L39.5391 4.37776V9.13812C39.5391 9.81783 40.0899 10.3686 40.7695 10.3686C41.4492 10.3686 42 9.81783 42 9.13812V1.23047C42 0.55084 41.4492 0 40.7695 0Z" fill="#922338"/>
</g>
<defs>
<clipPath id="clip0_4185_1692">
<rect width="42" height="42" fill="white"/>
</clipPath>
</defs>
</svg>
