<svg width="42" height="42" viewBox="0 0 42 42" fill="none" xmlns="http://www.w3.org/2000/svg">
<g clip-path="url(#clip0_4185_1631)">
<path d="M38.2266 0H3.77344C3.09332 0 2.54297 0.550348 2.54297 1.23047V21.082C2.54297 21.7622 3.09332 22.3125 3.77344 22.3125H38.2266C38.9067 22.3125 39.457 21.7622 39.457 21.082V1.23047C39.457 0.550348 38.9067 0 38.2266 0Z" fill="#8CD96B"/>
<path d="M39.457 21.082V1.23047C39.457 0.550348 38.9067 0 38.2266 0H21V22.3125H38.2266C38.9067 22.3125 39.457 21.7622 39.457 21.082ZM11.1562 17.3086H8.69531C8.01519 17.3086 7.46484 16.7582 7.46484 16.0781V6.23438C7.46484 5.55425 8.01519 5.00391 8.69531 5.00391H11.1562C11.8364 5.00391 12.3867 5.55425 12.3867 6.23438C12.3867 6.9145 11.8364 7.46484 11.1562 7.46484H9.92578V14.8477H11.1562C11.8364 14.8477 12.3867 15.398 12.3867 16.0781C12.3867 16.7582 11.8364 17.3086 11.1562 17.3086Z" fill="#5AB267"/>
<path d="M33.3047 17.3086H30.8438C30.1636 17.3086 29.6133 16.7582 29.6133 16.0781C29.6133 15.398 30.1636 14.8477 30.8438 14.8477H32.0742V7.46484H30.8438C30.1636 7.46484 29.6133 6.9145 29.6133 6.23438C29.6133 5.55425 30.1636 5.00391 30.8438 5.00391H33.3047C33.9848 5.00391 34.5352 5.55425 34.5352 6.23438V16.0781C34.5352 16.7582 33.9848 17.3086 33.3047 17.3086Z" fill="#288C64"/>
<path d="M21 17.3086C24.3978 17.3086 27.1523 14.5541 27.1523 11.1562C27.1523 7.7584 24.3978 5.00391 21 5.00391C17.6022 5.00391 14.8477 7.7584 14.8477 11.1562C14.8477 14.5541 17.6022 17.3086 21 17.3086Z" fill="#5AB267"/>
<path d="M27.1523 11.1562C27.1523 7.76401 24.3922 5.00391 21 5.00391V17.3086C24.3922 17.3086 27.1523 14.5485 27.1523 11.1562Z" fill="#288C64"/>
<path d="M41.726 30.1936L41.6937 30.1538C40.4042 28.5731 38.0263 28.4157 36.4364 29.6937L36.1106 29.9558C31.2848 33.8407 30.3378 34.5417 28.0763 34.6174L21 34.6183L18.5391 34.6186C17.8589 34.6186 17.3086 34.0667 17.3086 33.3865C17.3086 32.7064 17.8589 32.1561 18.5391 32.1561H28.3828C29.0624 32.1561 29.6133 31.6051 29.6133 30.9256C29.6133 28.8869 27.9606 27.2342 25.9219 27.2342H22.9708C22.3707 27.2134 21.6745 27.1449 21 27.0874C19.61 26.9691 18.1277 26.789 16.4759 26.4075C12.9989 25.6073 11.2417 25.4131 7.46484 27.2342L4.98389 32.1561L5.53678 41.2409C8.72066 39.8913 11.6861 38.5328 15.267 39.3827C17.2508 39.8555 19.1467 40.0914 21 40.2065C28.9438 40.7001 35.8173 37.9576 41.682 31.7864C42.0952 31.3516 42.1012 30.6617 41.726 30.1936Z" fill="#FFE1BA"/>
<path d="M28.3828 32.1565C29.0624 32.1565 29.6133 31.6056 29.6133 30.9261C29.6133 28.8873 27.9606 27.2346 25.9219 27.2346H22.9708C22.3707 27.2139 21.6745 27.1453 21 27.0879V32.1565H28.3828Z" fill="#FFBFAB"/>
<path d="M41.682 31.787C42.0952 31.3522 42.1012 30.6623 41.726 30.1942L41.6937 30.1545C40.4042 28.5737 38.0263 28.4163 36.4364 29.6943L36.1106 29.9564C31.2848 33.8413 30.3378 34.5423 28.0763 34.618L21 34.6189V40.2071C28.9438 40.7007 35.8173 37.9582 41.682 31.787Z" fill="#FFBFAB"/>
<path d="M6.23438 42H1.23047C0.550922 42 0 41.4491 0 40.7695V28.4648C0 27.7853 0.550922 27.2344 1.23047 27.2344H7.46484V40.7695C7.46484 41.4491 6.91392 42 6.23438 42Z" fill="#8CD96B"/>
</g>
<defs>
<clipPath id="clip0_4185_1631">
<rect width="42" height="42" fill="white"/>
</clipPath>
</defs>
</svg>
