<svg width="42" height="42" viewBox="0 0 42 42" fill="none" xmlns="http://www.w3.org/2000/svg">
<path d="M36.5254 15.1186C35.2317 12.8497 34.0098 10.7067 34.0098 7.82031C34.0098 7.14077 33.4589 6.58984 32.7794 6.58984H9.22066C8.54111 6.58984 7.99019 7.14077 7.99019 7.82031C7.99019 10.7067 6.76825 12.8497 5.47462 15.1186C4.07902 17.5663 2.63593 20.0972 2.63593 23.6359V38.1336C2.63593 40.2655 4.37039 41.9999 6.5023 41.9999H13.6411C13.6411 41.3204 14.192 40.7695 14.8715 40.7695H33.0155C33.695 40.7695 34.2459 41.3204 34.2459 41.9999H35.4976C37.6295 41.9999 39.3639 40.2655 39.3639 38.1336V23.6359C39.3641 20.0973 37.9209 17.5663 36.5254 15.1186Z" fill="#E8FBFF"/>
<path d="M36.5254 15.1186C35.2317 12.8497 34.0098 10.7067 34.0098 7.82031C34.0098 7.14077 33.4589 6.58984 32.7794 6.58984H21V40.7696H33.0155C33.6951 40.7696 34.246 41.3205 34.246 42H35.4976C37.6295 42 39.364 40.2656 39.364 38.1336V23.6359C39.3641 20.0973 37.9209 17.5663 36.5254 15.1186Z" fill="#BBEBFE"/>
<path d="M33.5207 7.82029H8.47934C7.79979 7.82029 7.24887 7.26936 7.24887 6.58982V1.23047C7.24887 0.550922 7.79979 0 8.47934 0H33.5208C34.2003 0 34.7512 0.550922 34.7512 1.23047V6.58982C34.7512 7.26945 34.2002 7.82029 33.5207 7.82029Z" fill="#6A88FF"/>
<path d="M34.7511 6.58982V1.23047C34.7511 0.550922 34.2002 0 33.5207 0H21V7.82029H33.5207C34.2002 7.82029 34.7511 7.26945 34.7511 6.58982Z" fill="#3856CD"/>
<path d="M34.8387 9.05078H7.16135C6.4818 9.05078 5.93088 8.49986 5.93088 7.82031C5.93088 7.14077 6.4818 6.58984 7.16135 6.58984H34.8387C35.5182 6.58984 36.0692 7.14077 36.0692 7.82031C36.0692 8.49986 35.5182 9.05078 34.8387 9.05078Z" fill="#3957CE"/>
<path d="M36.0691 7.82031C36.0691 7.14077 35.5182 6.58984 34.8387 6.58984H21V9.05078H34.8387C35.5182 9.05078 36.0691 8.49994 36.0691 7.82031Z" fill="#112FA6"/>
<path d="M17.0793 25.5693H24.9208C25.6003 25.5693 26.1513 25.0183 26.1513 24.3388V19.6821C26.1513 19.0026 25.6003 18.4517 24.9208 18.4517H17.0793C16.3997 18.4517 15.8488 19.0026 15.8488 19.6821V24.3388C15.8488 25.0183 16.3997 25.5693 17.0793 25.5693Z" fill="#FFC347"/>
<path d="M21 25.5693H24.9208C25.6003 25.5693 26.1512 25.0183 26.1512 24.3388V19.6821C26.1512 19.0026 25.6003 18.4517 24.9208 18.4517H21V25.5693Z" fill="#FFA74C"/>
<path d="M13.6411 30.2256V36.1127C13.6411 36.7923 14.1921 37.3432 14.8716 37.3432H25.4153C26.0949 37.3432 26.6458 36.7923 26.6458 36.1127V30.2256C26.6458 29.546 26.0949 28.9951 25.4153 28.9951H14.8716C14.192 28.9951 13.6411 29.546 13.6411 30.2256Z" fill="#FFC347"/>
<path d="M21 28.9951V37.3432H25.4153C26.0949 37.3432 26.6458 36.7923 26.6458 36.1127V30.2256C26.6458 29.546 26.0949 28.9951 25.4153 28.9951H21Z" fill="#FFA74C"/>
<path d="M25.4153 37.3432H30.072C30.7516 37.3432 31.3025 36.7923 31.3025 36.1127V30.2256C31.3025 29.546 30.7516 28.9951 30.072 28.9951H25.4153V37.3432Z" fill="#FE8A52"/>
<path d="M13.3998 30.226H22.4718C23.1514 30.226 23.7023 29.6751 23.7023 28.9955V25.5693C23.7023 24.8898 23.1514 24.3389 22.4718 24.3389H13.3998C12.7203 24.3389 12.1693 24.8898 12.1693 25.5693V28.9955C12.1693 29.6751 12.7203 30.226 13.3998 30.226Z" fill="#FFA74C"/>
<path d="M21 30.226H22.4718C23.1514 30.226 23.7023 29.6751 23.7023 28.9955V25.5693C23.7023 24.8898 23.1514 24.3389 22.4718 24.3389H21V30.226Z" fill="#FE8A52"/>
<path d="M22.4718 30.226H31.5438C32.2234 30.226 32.7743 29.6751 32.7743 28.9955V25.5693C32.7743 24.8898 32.2234 24.3389 31.5438 24.3389H22.4718V30.226Z" fill="#FFC347"/>
<path d="M13.6411 41.9999H23.9436C24.6232 41.9999 25.1741 41.449 25.1741 40.7695V37.3433C25.1741 36.6637 24.6232 36.1128 23.9436 36.1128H13.6411V41.9999Z" fill="#FFA74C"/>
<path d="M21 41.9999H23.9435C24.6231 41.9999 25.174 41.449 25.174 40.7695V37.3433C25.174 36.6637 24.6231 36.1128 23.9435 36.1128H21V41.9999Z" fill="#FE8A52"/>
<path d="M13.6412 41.9999C16.8925 41.9999 19.5283 39.3641 19.5283 36.1127C19.5283 32.8613 16.8925 30.2256 13.6412 30.2256C10.3898 30.2256 7.75403 32.8613 7.75403 36.1127C7.75403 39.3641 10.3898 41.9999 13.6412 41.9999Z" fill="#FFE05B"/>
<path d="M23.9435 41.9999H34.246V37.3433C34.246 36.6637 33.6951 36.1128 33.0155 36.1128H23.9435V41.9999Z" fill="#FFC347"/>
</svg>
