<svg width="42" height="42" viewBox="0 0 42 42" fill="none" xmlns="http://www.w3.org/2000/svg">
<g clip-path="url(#clip0_4185_1646)">
<path d="M15.3201 34.2305L16.653 38.7031L15.3201 41.9991H7.2655C5.44522 41.9991 3.96948 40.5233 3.96948 38.7031C3.96948 37.7933 4.33862 36.9689 4.93499 36.3726C5.53136 35.7762 6.35577 35.407 7.2655 35.407L15.3201 34.2305Z" fill="#FFCC00"/>
<path d="M26.6708 38.7031C26.6708 39.6128 26.3025 40.4372 25.7053 41.0336C25.1097 41.6299 24.2853 41.9991 23.3748 41.9991H15.3201V34.2305L23.3748 35.407C25.1959 35.407 26.6708 36.8828 26.6708 38.7031Z" fill="#FF9E00"/>
<path d="M15.3201 20.4873L16.653 25.2825L15.3201 30.7216L7.2655 28.8151C5.44522 28.8151 3.96948 27.3402 3.96948 25.5199C3.96948 24.6094 4.33862 23.7858 4.93499 23.1894C5.53136 22.593 6.35577 22.2239 7.2655 22.2239L15.3201 20.4873Z" fill="#FFCC00"/>
<path d="M26.6708 25.5199C26.6708 26.4305 26.3025 27.2541 25.7053 27.8504C25.3996 28.1569 25.0363 28.4 24.6364 28.5655C24.2364 28.7311 23.8077 28.8159 23.3748 28.8151L15.3201 30.7216V20.4873L23.3748 22.2239C25.1959 22.2239 26.6708 23.6996 26.6708 25.5199Z" fill="#FF9E00"/>
<path d="M15.3201 28.8149L16.653 32.4941L15.3201 35.407H7.2655C5.44522 35.407 3.96948 33.9312 3.96948 32.111C3.96948 31.2012 4.33862 30.3768 4.93499 29.7805C5.53136 29.1841 6.35577 28.8149 7.2655 28.8149H15.3201Z" fill="#FFEE00"/>
<path d="M26.6708 32.111C26.6708 33.0207 26.3025 33.8451 25.7053 34.4415C25.1097 35.0378 24.2853 35.407 23.3748 35.407H15.3201V28.8149H23.3748C25.1959 28.8149 26.6708 30.2907 26.6708 32.111Z" fill="#FFCC00"/>
<path d="M15.3201 15.6318L16.653 18.9279L15.3201 22.2239H7.2655C5.44522 22.2239 3.96948 20.7481 3.96948 18.9279C3.96948 18.0173 4.33862 17.1937 4.93499 16.5973C5.53136 16.001 6.35577 15.6318 7.2655 15.6318H15.3201Z" fill="#FFEE00"/>
<path d="M26.6708 18.9279C26.6708 19.8384 26.3025 20.662 25.7053 21.2584C25.1097 21.8547 24.2853 22.2239 23.3748 22.2239H15.3201V15.6318H23.3748C25.1959 15.6318 26.6708 17.1076 26.6708 18.9279Z" fill="#FFCC00"/>
<path d="M23.1363 7.81559L15.3204 9.14844L7.50446 7.81559L7.50446 6.16513C7.50446 5.54415 8.00813 5.03966 8.62992 5.03966L12.6068 5.03966C13.2286 5.03966 13.7323 4.53598 13.7323 3.91419L13.7323 2.19973C13.7323 1.30067 14.7355 0.764187 15.4836 1.26458L22.6368 6.88044C22.9698 7.10356 23.1363 7.45958 23.1363 7.81559Z" fill="#C909CC"/>
<path d="M13.7323 13.4316L13.7323 11.7171C13.7323 11.0953 13.2286 10.5916 12.6068 10.5916L8.62992 10.5916C8.00813 10.5916 7.50446 10.088 7.50446 9.46616L7.50446 7.81569L23.1363 7.81569C23.1363 8.17171 22.9698 8.52855 22.6368 8.75167L15.4836 14.3675C14.7355 14.8671 13.7323 14.3314 13.7323 13.4316Z" fill="#E727EA"/>
<path d="M26.6741 19.2812L28.5469 31.2284L26.6741 41.9998H26.6708C20.3979 41.9998 15.312 36.9139 15.312 30.6401C15.312 24.3672 20.3979 19.2812 26.6708 19.2812H26.6741Z" fill="#FFEE00"/>
<path d="M38.0305 30.6401C38.0305 36.913 32.9462 41.9982 26.6741 41.9998V19.2812C32.9462 19.2829 38.0305 24.368 38.0305 30.6401Z" fill="#FFCC00"/>
<path d="M25.7225 28.396C25.9637 28.5855 26.2984 28.7659 26.6741 28.9357L27.6445 30.2286L26.6741 31.5911C25.7578 31.2482 24.8653 30.8512 24.2041 30.3327C23.3748 29.6822 22.9942 28.5641 23.2107 27.4149C23.4404 26.1967 24.2812 25.2238 25.4108 24.8571V24.5914C25.4108 23.9015 25.9801 23.3445 26.6741 23.3617L27.3984 25.5195L26.6741 27.1253C26.4994 27.1278 26.3328 27.1475 26.1835 27.1926C25.5798 27.3747 25.5068 28.227 25.7225 28.396ZM26.6027 34.1767C26.6265 34.1767 26.6511 34.1759 26.6741 34.1743L27.6445 35.7107L26.6741 37.9198C26.6437 37.9206 26.6134 37.9206 26.5822 37.919C25.9202 37.8878 25.4108 37.3177 25.4108 36.6549V36.5737C24.7644 36.4802 24.2009 36.2611 23.4634 35.7837C22.9023 35.4203 22.703 34.673 23.0467 34.0996C23.4084 33.4975 24.1943 33.3211 24.7759 33.7018C25.4535 34.1447 25.6897 34.1841 26.6027 34.1767Z" fill="#FFCC00"/>
<path d="M27.9989 27.3436C27.6027 27.2271 27.1121 27.1197 26.6741 27.1254V23.3618C26.6831 23.3618 26.6921 23.3626 26.7011 23.3626C27.3631 23.3938 27.8717 23.9639 27.8717 24.6267V24.799C28.0907 24.8597 28.3787 24.9393 28.6789 25.0287C29.2195 25.1878 29.5402 25.6784 29.5402 26.1862C29.5402 26.4331 29.4648 26.6849 29.3007 26.9047C29.0005 27.3083 28.4812 27.4839 27.9989 27.3436ZM30.418 33.4049C30.2063 34.6633 29.2966 35.9372 27.8717 36.4278V36.6894C27.8717 37.3588 27.3385 37.9027 26.6741 37.9199V34.1744C27.4493 34.135 27.8988 33.5452 27.9907 32.9972C28.0588 32.5944 27.9833 32.0604 27.2425 31.7979C27.0531 31.7306 26.8627 31.6617 26.6741 31.5912V28.9358C27.108 29.1319 27.5986 29.314 28.0629 29.4781C29.765 30.0794 30.7116 31.6576 30.418 33.4049Z" fill="#FF9E00"/>
</g>
<defs>
<clipPath id="clip0_4185_1646">
<rect width="42" height="42" fill="white"/>
</clipPath>
</defs>
</svg>
